<svg width="192" height="122" viewBox="0 0 192 122" fill="none" xmlns="http://www.w3.org/2000/svg">
<path d="M7.30029 112V48.46H33.5161C45.0096 48.46 50.7563 53.5402 50.7563 63.7007C50.7563 72.4985 44.5208 78.734 32.0498 82.4072L53.5112 112H47.1128L26.0068 82.5405V79.3857C39.0407 77.4603 45.5576 72.3504 45.5576 64.0562C45.5576 56.4136 41.292 52.5923 32.7607 52.5923H11.9658V112H7.30029ZM100.655 65.3447V112H97.2339L96.7007 106.046C91.339 110.015 85.3553 112 78.7495 112C67.73 112 62.2202 106.209 62.2202 94.6265V65.3447H66.8857V94.7598C66.8857 103.469 70.9144 107.823 78.9717 107.823C84.8665 107.823 90.5392 105.853 95.9897 101.914V65.3447H100.655Z" fill="#E1A990"/>
<path d="M95.7886 66V2.45996H100.454V24.4102C105.905 21.0332 111.488 19.3447 117.206 19.3447C128.551 19.3447 134.224 25.1359 134.224 36.7183V66H129.558V34.8076C129.558 27.2835 125.367 23.5215 116.983 23.5215C111.385 23.5215 105.875 25.4914 100.454 29.4312V66H95.7886ZM167.282 19.3447C180.049 19.3447 186.433 26.4097 186.433 40.5396C186.433 41.5467 186.403 42.5983 186.344 43.6943H150.931C150.931 55.8988 157.388 62.001 170.304 62.001C175.606 62.001 180.316 61.2604 184.434 59.7793V63.7783C180.316 65.2594 175.606 66 170.304 66C154.278 66 146.265 58.0464 146.265 42.1392C146.265 26.9429 153.271 19.3447 167.282 19.3447ZM150.931 39.5176H181.945C181.768 28.6758 176.88 23.2549 167.282 23.2549C156.914 23.2549 151.464 28.6758 150.931 39.5176Z" fill="#E1A990"/>
</svg>
