<svg width="193" height="74" viewBox="0 0 193 74" fill="none" xmlns="http://www.w3.org/2000/svg">
<path d="M7.30029 68V4.45996H33.5161C45.0096 4.45996 50.7563 9.5402 50.7563 19.7007C50.7563 28.4985 44.5208 34.734 32.0498 38.4072L53.5112 68H47.1128L26.0068 38.5405V35.3857C39.0407 33.4603 45.5576 28.3504 45.5576 20.0562C45.5576 12.4136 41.292 8.59229 32.7607 8.59229H11.9658V68H7.30029ZM100.655 21.3447V68H97.2339L96.7007 62.0459C91.339 66.0153 85.3553 68 78.7495 68C67.73 68 62.2202 62.2088 62.2202 50.6265V21.3447H66.8857V50.7598C66.8857 59.4688 70.9144 63.8232 78.9717 63.8232C84.8665 63.8232 90.5392 61.8534 95.9897 57.9136V21.3447H100.655Z" fill="#0D0D0D"/>
<path d="M95.7886 68V4.45996H100.454V26.4102C105.905 23.0332 111.488 21.3447 117.206 21.3447C128.551 21.3447 134.224 27.1359 134.224 38.7183V68H129.558V36.8076C129.558 29.2835 125.367 25.5215 116.983 25.5215C111.385 25.5215 105.875 27.4914 100.454 31.4312V68H95.7886ZM167.282 21.3447C180.049 21.3447 186.433 28.4097 186.433 42.5396C186.433 43.5467 186.403 44.5983 186.344 45.6943H150.931C150.931 57.8988 157.388 64.001 170.304 64.001C175.606 64.001 180.316 63.2604 184.434 61.7793V65.7783C180.316 67.2594 175.606 68 170.304 68C154.278 68 146.265 60.0464 146.265 44.1392C146.265 28.9429 153.271 21.3447 167.282 21.3447ZM150.931 41.5176H181.945C181.768 30.6758 176.88 25.2549 167.282 25.2549C156.914 25.2549 151.464 30.6758 150.931 41.5176Z" fill="#0D0D0D"/>
</svg>
